<mxfile host="Electron" modified="2024-07-11T22:12:44.146Z" agent="Mozilla/5.0 (Macintosh; Intel Mac OS X 10_15_7) AppleWebKit/537.36 (KHTML, like Gecko) draw.io/24.6.4 Chrome/124.0.6367.207 Electron/30.0.6 Safari/537.36" etag="jAWJLoxHuUzFSb8DetaL" version="24.6.4" type="device">
  <diagram name="Шардирование + Репликация + Кеширование" id="-H_mtQnk-PTXWXPvYvuk">
    <mxGraphModel dx="954" dy="674" grid="1" gridSize="10" guides="1" tooltips="1" connect="1" arrows="1" fold="1" page="1" pageScale="1" pageWidth="1169" pageHeight="827" math="0" shadow="0">
      <root>
        <mxCell id="0" />
        <mxCell id="1" parent="0" />
        
        <!-- API Gateway -->
        <mxCell id="api-gateway" value="pymongo-api" style="rounded=1;whiteSpace=wrap;html=1;fillColor=#dae8fc;strokeColor=#6c8ebf;" vertex="1" parent="1">
          <mxGeometry x="360" y="290" width="120" height="60" as="geometry" />
        </mxCell>
        
        <!-- Redis Cache -->
        <mxCell id="redis-cache" value="Redis Cache" style="shape=cylinder3;whiteSpace=wrap;html=1;boundedLbl=1;backgroundOutline=1;size=15;fillColor=#ffe6cc;strokeColor=#d79b00;" vertex="1" parent="1">
          <mxGeometry x="560" y="290" width="80" height="60" as="geometry" />
        </mxCell>
        
        <!-- Mongos Router -->
        <mxCell id="mongos-router" value="Mongos Router" style="rounded=1;whiteSpace=wrap;html=1;fillColor=#fff2cc;strokeColor=#d6b656;" vertex="1" parent="1">
          <mxGeometry x="360" y="200" width="120" height="60" as="geometry" />
        </mxCell>
        
        <!-- Config Server -->
        <mxCell id="config-server" value="Config Server" style="shape=cylinder3;whiteSpace=wrap;html=1;boundedLbl=1;backgroundOutline=1;size=15;fillColor=#e1d5e7;strokeColor=#9673a6;" vertex="1" parent="1">
          <mxGeometry x="560" y="200" width="80" height="60" as="geometry" />
        </mxCell>
        
        <!-- Shard 1 Primary -->
        <mxCell id="shard1-primary" value="Shard 1 Primary" style="shape=cylinder3;whiteSpace=wrap;html=1;boundedLbl=1;backgroundOutline=1;size=15;fillColor=#f8cecc;strokeColor=#b85450;" vertex="1" parent="1">
          <mxGeometry x="120" y="280" width="80" height="60" as="geometry" />
        </mxCell>
        
        <!-- Shard 1 Secondary 1 -->
        <mxCell id="shard1-secondary1" value="Shard 1 Secondary 1" style="shape=cylinder3;whiteSpace=wrap;html=1;boundedLbl=1;backgroundOutline=1;size=15;fillColor=#f8cecc;strokeColor=#b85450;" vertex="1" parent="1">
          <mxGeometry x="120" y="360" width="80" height="60" as="geometry" />
        </mxCell>
        
        <!-- Shard 1 Secondary 2 -->
        <mxCell id="shard1-secondary2" value="Shard 1 Secondary 2" style="shape=cylinder3;whiteSpace=wrap;html=1;boundedLbl=1;backgroundOutline=1;size=15;fillColor=#f8cecc;strokeColor=#b85450;" vertex="1" parent="1">
          <mxGeometry x="120" y="440" width="80" height="60" as="geometry" />
        </mxCell>
        
        <!-- Shard 2 Primary -->
        <mxCell id="shard2-primary" value="Shard 2 Primary" style="shape=cylinder3;whiteSpace=wrap;html=1;boundedLbl=1;backgroundOutline=1;size=15;fillColor=#d5e8d4;strokeColor=#82b366;" vertex="1" parent="1">
          <mxGeometry x="720" y="280" width="80" height="60" as="geometry" />
        </mxCell>
        
        <!-- Shard 2 Secondary 1 -->
        <mxCell id="shard2-secondary1" value="Shard 2 Secondary 1" style="shape=cylinder3;whiteSpace=wrap;html=1;boundedLbl=1;backgroundOutline=1;size=15;fillColor=#d5e8d4;strokeColor=#82b366;" vertex="1" parent="1">
          <mxGeometry x="720" y="360" width="80" height="60" as="geometry" />
        </mxCell>
        
        <!-- Shard 2 Secondary 2 -->
        <mxCell id="shard2-secondary2" value="Shard 2 Secondary 2" style="shape=cylinder3;whiteSpace=wrap;html=1;boundedLbl=1;backgroundOutline=1;size=15;fillColor=#d5e8d4;strokeColor=#82b366;" vertex="1" parent="1">
          <mxGeometry x="720" y="440" width="80" height="60" as="geometry" />
        </mxCell>
        
        <!-- Connections -->
        <mxCell id="api-to-mongos" style="edgeStyle=orthogonalEdgeStyle;rounded=0;orthogonalLoop=1;jettySize=auto;html=1;exitX=0.5;exitY=0;exitDx=0;exitDy=0;entryX=0.5;entryY=1;entryDx=0;entryDy=0;" edge="1" parent="1" source="api-gateway" target="mongos-router">
          <mxGeometry relative="1" as="geometry" />
        </mxCell>
        
        <mxCell id="api-to-redis" style="edgeStyle=orthogonalEdgeStyle;rounded=0;orthogonalLoop=1;jettySize=auto;html=1;exitX=1;exitY=0.5;exitDx=0;exitDy=0;entryX=0;entryY=0.5;entryDx=0;entryDy=0;strokeColor=#d79b00;strokeWidth=2;" edge="1" parent="1" source="api-gateway" target="redis-cache">
          <mxGeometry relative="1" as="geometry" />
        </mxCell>
        
        <mxCell id="mongos-to-config" style="edgeStyle=orthogonalEdgeStyle;rounded=0;orthogonalLoop=1;jettySize=auto;html=1;exitX=1;exitY=0.5;exitDx=0;exitDy=0;entryX=0;entryY=0.5;entryDx=0;entryDy=0;" edge="1" parent="1" source="mongos-router" target="config-server">
          <mxGeometry relative="1" as="geometry" />
        </mxCell>
        
        <mxCell id="mongos-to-shard1-primary" style="edgeStyle=orthogonalEdgeStyle;rounded=0;orthogonalLoop=1;jettySize=auto;html=1;exitX=0;exitY=0.5;exitDx=0;exitDy=0;entryX=1;entryY=0.5;entryDx=0;entryDy=0;" edge="1" parent="1" source="mongos-router" target="shard1-primary">
          <mxGeometry relative="1" as="geometry" />
        </mxCell>
        
        <mxCell id="mongos-to-shard2-primary" style="edgeStyle=orthogonalEdgeStyle;rounded=0;orthogonalLoop=1;jettySize=auto;html=1;exitX=1;exitY=0.5;exitDx=0;exitDy=0;entryX=0;entryY=0.5;entryDx=0;entryDy=0;" edge="1" parent="1" source="mongos-router" target="shard2-primary">
          <mxGeometry relative="1" as="geometry" />
        </mxCell>
        
        <!-- Replica Set Connections -->
        <mxCell id="shard1-replica-1" style="edgeStyle=orthogonalEdgeStyle;rounded=0;orthogonalLoop=1;jettySize=auto;html=1;exitX=0.5;exitY=1;exitDx=0;exitDy=0;entryX=0.5;entryY=0;entryDx=0;entryDy=0;strokeColor=#b85450;" edge="1" parent="1" source="shard1-primary" target="shard1-secondary1">
          <mxGeometry relative="1" as="geometry" />
        </mxCell>
        
        <mxCell id="shard1-replica-2" style="edgeStyle=orthogonalEdgeStyle;rounded=0;orthogonalLoop=1;jettySize=auto;html=1;exitX=0.5;exitY=1;exitDx=0;exitDy=0;entryX=0.5;entryY=0;entryDx=0;entryDy=0;strokeColor=#b85450;" edge="1" parent="1" source="shard1-secondary1" target="shard1-secondary2">
          <mxGeometry relative="1" as="geometry" />
        </mxCell>
        
        <mxCell id="shard2-replica-1" style="edgeStyle=orthogonalEdgeStyle;rounded=0;orthogonalLoop=1;jettySize=auto;html=1;exitX=0.5;exitY=1;exitDx=0;exitDy=0;entryX=0.5;entryY=0;entryDx=0;entryDy=0;strokeColor=#82b366;" edge="1" parent="1" source="shard2-primary" target="shard2-secondary1">
          <mxGeometry relative="1" as="geometry" />
        </mxCell>
        
        <mxCell id="shard2-replica-2" style="edgeStyle=orthogonalEdgeStyle;rounded=0;orthogonalLoop=1;jettySize=auto;html=1;exitX=0.5;exitY=1;exitDx=0;exitDy=0;entryX=0.5;entryY=0;entryDx=0;entryDy=0;strokeColor=#82b366;" edge="1" parent="1" source="shard2-secondary1" target="shard2-secondary2">
          <mxGeometry relative="1" as="geometry" />
        </mxCell>
        
        <!-- Title -->
        <mxCell id="title" value="Архитектура с шардированием, репликацией и кешированием" style="text;html=1;strokeColor=none;fillColor=none;align=center;verticalAlign=middle;whiteSpace=wrap;rounded=0;fontSize=16;fontStyle=1;" vertex="1" parent="1">
          <mxGeometry x="300" y="120" width="500" height="30" as="geometry" />
        </mxCell>
        
        <!-- Replica Set Labels -->
        <mxCell id="shard1-label" value="Replica Set 1" style="text;html=1;strokeColor=none;fillColor=none;align=center;verticalAlign=middle;whiteSpace=wrap;rounded=0;fontSize=12;fontStyle=1;" vertex="1" parent="1">
          <mxGeometry x="80" y="520" width="160" height="20" as="geometry" />
        </mxCell>
        
        <mxCell id="shard2-label" value="Replica Set 2" style="text;html=1;strokeColor=none;fillColor=none;align=center;verticalAlign=middle;whiteSpace=wrap;rounded=0;fontSize=12;fontStyle=1;" vertex="1" parent="1">
          <mxGeometry x="680" y="520" width="160" height="20" as="geometry" />
        </mxCell>
        
        <!-- Cache Flow Label -->
        <mxCell id="cache-flow-label" value="Кеширование запросов" style="text;html=1;strokeColor=none;fillColor=none;align=center;verticalAlign=middle;whiteSpace=wrap;rounded=0;fontSize=10;fontStyle=2;fontColor=#d79b00;" vertex="1" parent="1">
          <mxGeometry x="420" y="320" width="120" height="20" as="geometry" />
        </mxCell>
        
      </root>
    </mxGraphModel>
  </diagram>
</mxfile> 